<?xml version="1.0" encoding="UTF-8"?>
<svg version="1.1" viewBox="0 0 1024 1024" width="1280" height="1280" xmlns="http://www.w3.org/2000/svg">
<path transform="translate(0)" d="m0 0h1024v1024h-1024z" fill="#A8ADBA"/>
<path transform="translate(496,168)" d="m0 0h39l34 4 20 4 25 7 28 11 24 11 22 12 23 16 16 13 12 11 15 15 9 11 12 15 8 12 9 14 13 23 9 19 9 23 9 29 6 28 3 26v56l-3 24-7 30-11 33-9 21-8 16-9 16-14 20-9 12-12 14-9 10-12 12-11 9-14 12-27 18-22 13-32 14-25 8-21 6-30 5-19 2-30 1-25-1-24-3-24-5-27-8-19-7-22-10-18-10-19-12-15-11-16-13-16-15-11-11-7-8-9-11-10-13-9-14-10-16-12-23-8-18-12-36-5-21-3-18-2-32v-16l2-30 5-30 6-25 8-24 11-26 11-21 15-24 8-11 9-12 8-10 14-15 10-10 8-7 13-11 18-13 29-17 25-12 27-10 19-6 27-6 26-3z" fill="#E2B3B8"/>
<path transform="translate(496,168)" d="m0 0h39l34 4 20 4 25 7 28 11 24 11 22 12 23 16 16 13 12 11 15 15 9 11 12 15 8 12 9 14 13 23 9 19 9 23 9 29 6 28 3 26v56l-3 24-7 30-11 33-9 21-8 16-9 16-14 20-9 12-12 14-9 10-12 12-11 9-14 12-27 18-22 13-32 14-25 8-21 6-30 5-19 2-30 1-25-1-24-3-24-5-27-8-19-7-22-10-18-10-19-12-15-11-16-13-16-15-11-11-7-8-9-11-10-13-9-14-10-16-12-23-8-18-12-36-5-21-3-18-2-32v-16l2-30 5-30 6-25 8-24 11-26 11-21 15-24 8-11 9-12 8-10 14-15 10-10 8-7 13-11 18-13 29-17 25-12 27-10 19-6 27-6 26-3zm-8 32-24 3-27 6-26 8-30 13-20 11-20 13-13 10-14 12-17 17-9 11-10 12-18 27-6 11-8 15-7 16-9 27-7 27-4 27-1 12v43l3 25 6 27 10 30 8 18 15 28 10 16 12 16 9 11 7 7 7 8 12 11 14 11 15 11 25 15 25 13 34 12 31 7 23 3 15 1h29l24-2 19-3 31-8 25-9 20-9 18-10 18-12 11-8 10-8 10-9 12-11 7-8 9-10 10-13 13-20 10-17 11-23 6-15 10-35 4-19 3-26v-34l-3-29-6-28-8-26-8-21-8-16-9-17-12-18-12-16-11-13-7-8-5-6h-2v-2l-8-7-12-11-16-12-19-12-23-12-26-11-22-7-25-6-23-3-12-1z" fill="#1F2D3C"/>
<path transform="translate(599,329)" d="m0 0h1l1 5 1 18 2 7 20 2 10 3 4 4 2 14 1 2 3 1-1 17v19l3 3h12l3-1 12 48 1 3v10l-5 6-6 1-18-2h-25l-22 1-24 4-20 5-23 7-12 2h-13l-15-3-26-8-19-5-29-4-11-1h-50l-4-4 1-10 9-38 11-47 4-3 8-3 4-14 5-6 11-2h21l-1-30 10 3 36 13 29 11 10 3h9l17-6 33-13 26-10z" fill="#1F2D3C"/>
<path transform="translate(488,200)" d="m0 0h44l29 3 24 5 26 8 20 8 25 12 15 9 15 10 14 11 13 12 5 4v2l4 2 9 10 9 11 10 13 12 17 12 21 8 16 8 19 8 25 6 24 4 27 1 13v34l-4 32-7 28-8 25-11 25-10 19-11 17-12 17-10 11-7 8-11 12-8 7-13 11-18 13-21 13-15 8-24 10-24 8-29 7-22 3-16 1h-29l-25-2-22-4-25-6-31-11-29-15-21-13-19-14-14-12-12-11-11-12-9-11-13-18-10-17-14-26-9-21-9-29-6-29-2-19v-43l3-26 4-22 8-28 8-22 10-21 10-18 13-19 9-12 12-14 9-10 13-13 11-9 17-13 25-15 15-8 29-12 23-7 27-6zm8 22-23 3-29 6-19 6-27 11-16 8-14 8-16 11-14 11-13 12-17 17-10 13-12 17-10 17-6 10-10 22-12 36-5 24-3 26v32l2 22 4 21 8 27 7 19 11 23 10 17 14 21 10 13 15 16 10 9 11 9 17 12 18 11 25 13 19 7 21 7 22 5 20 3 14 1h32l34-4 28-7 28-10 25-12 25-15 16-12 13-12 14-13 7-8 14-18 14-22 12-22 8-20 10-31 6-29 2-19v-38l-4-31-6-24-11-31-8-17-10-18-14-21-11-14-12-14-15-15-8-7-12-9-18-12-18-10-21-10-17-7-32-8-22-4-25-2z" fill="#F9F9F9"/>
<path transform="translate(509,240)" d="m0 0h9l97 35 51 17 6 4 3 5 1 9v27l6 2 5 6 1 9-4 7-3 4 3 9 5 28 1 8h-6l-7-4-6-9-5 5-8 7-6 1-1-5 7-37 1-4-6-8-1-8 4-8 6-5-1-30-5-3-7-1-23 7-16 6-27 9-32 12-35 13-8-1-23-8-27-10-28-10-63-21-2-3 8-5 39-14 38-14 30-11z" fill="#1F2D3C"/>
<path transform="translate(637,505)" d="m0 0h11l17 4 16 8 11 8 7 7 9 14 5 11 4 17v21l-4 15-5 12-8 11-9 10-14 9-14 5-14 3h-11l-17-3-13-5-11-7-10-9-9-12-6-12-4-13-1-6v-19l3-15 6-14 8-12 8-9 13-9 11-5 14-4z" fill="#F8F8F9"/>
<path transform="translate(340,522)" d="m0 0h32l139 1 57 1 2 2-10 15-6 17-2 9-8 1h-220l-9-3-6-5-5-10v-10l4-8 8-7 5-2z" fill="#1F2D3C"/>
<path transform="translate(563,636)" d="m0 0h5l9 11 11 10 12 7 5 2-4 6-7 5-6 2h-252l-7-3-6-5-3-7v-13l3-6 7-6 4-2z" fill="#1F2D3C"/>
<path transform="translate(322,580)" d="m0 0h118l111 1 2 20 6 18v4l-3 1-97 1h-136l-8-3-8-7-3-6v-12l5-10 9-6z" fill="#1F2D3C"/>
<path transform="translate(402,373)" d="m0 0h38l22 3 21 8 22 12 1 1v85l-1 6-15-8-23-11-28-8-22-3h-19l-19 2 5-25 6-22 4-17 6-21z" fill="#F6F5F6"/>
<path transform="translate(583,373)" d="m0 0h35l7 2 8 31 12 47 2 8-24-3h-13l-18 2-26 6-21 8-16 8-7 4h-2l-1-6v-80l3-5 11-7 18-8 17-5z" fill="#F6F5F6"/>
<path transform="translate(631,489)" d="m0 0h26v2l7 1 4 3 13 5 12 7 10 9 5 5 8 10 11 21 4 16 1 6v19l-3 15-5 13-6 12-11 14-12 10-12 7-15 6-14 3h-23l-15-3-18-6-11-7-12-11-9-11-5-6-8-24-2-10v-15h-2l2-11 3-15 6-15 8-11 1-2h2l2-4 11-11 16-10 16-8 8-3zm6 16-15 3-13 5-12 7-8 7-8 10-7 12-5 14-2 11v19l4 16 5 12 10 14 8 8 14 9 13 5 17 3h11l21-5 14-7 10-8 8-9 7-11 6-16 2-9v-21l-4-17-8-16-8-11-11-10-14-8-10-4-14-3z" fill="#F8F7F8"/>
<path transform="translate(637,505)" d="m0 0h11l17 4 16 8 11 8 7 7 9 14 5 11 4 17v21l-4 15-5 12-8 11-9 10-14 9-14 5-14 3h-11l-17-3-13-5-11-7-10-9-9-12-6-12-4-13-1-6v-19l3-15 6-14 8-12 8-9 13-9 11-5 14-4zm-2 19-12 3-13 7-8 7-9 12-5 12-2 10v16l3 13 7 14 10 11 11 7 10 4 11 2h11l12-2 14-7 12-11 7-11 4-11 2-12-1-14-4-14-5-10-9-10-8-7-14-7-9-2z" fill="#1F2D3C"/>
<path transform="translate(363,297)" d="m0 0 12 3 44 14 28 10 22 8 30 11 13 4 7-1 59-22 28-10 18-6 14-5 11-3 10 2 3 3v6l-12 2-24 8-11 4v33h-13l-1-6-1-18-1-4-19 8-37 14-17 7-7 2h-9l-21-7-29-11-31-11-4-2 1 6v24l-2 1-13-1v-36l-9-2-29-10-10-5-1-5z" fill="#F6F6F6"/>
<path transform="translate(496,222)" d="m0 0h26l25 2 31 6 26 7 27 12 23 12 15 10 14 10 10 9 8 7 12 12 9 11 12 15-1 2-5-5-6-9-4-3v-2h-2l-2-4-5-4-8-6-1-4-5-2-8-4-5-1-13-13-5-3-9-3-14-7-9-6-18-8-13-6-6-2-9-2-18-5-17-2-5-2-29-3-22 1-13 2-14 3-12 3-10 1-18 6-8 3-12 6-8 2h-4v2l-4 1v2l-5 2-3 1v2l-11 6-16 7-11 8-10 7-4 5-7 6-4 9-12 12-7 11-6 7-9 14-6 11h-2l-3 9-9 16-3 4-1 4h-2l-3 9-2 5-3 1 1-8 8-22 10-21 8-13 10-16 9-12 11-14 23-23 11-9 18-13 18-11 16-8 21-9 17-6 18-5 26-5z" fill="#D4A5AA"/>
<path transform="translate(329,534)" d="m0 0h29l110 1 5 4 1 2v8l-4 4-10 1h-130l-8-3-3-4v-6l5-5z" fill="#F7F7F7"/>
<path transform="translate(327,592)" d="m0 0h143l4 6v6l-4 5-3 1h-141l-6-4-1-1v-6l5-6z" fill="#CF95A3"/>
<path transform="translate(659,310)" d="m0 0 3 1 1 24-6 5-4 8 1 8 6 8-4 19-4 22v5l3 1-5-1-5-6-2-5 1-14-4-1-2-10-2-8-7-3-12-2-13-1-1-2h12l-1-33 12-5 24-8z" fill="#E1B3B9"/>
<path transform="translate(726,618)" d="m0 0 2 2v11l-3 9-6 11-11 13-4 5-4 1v2l-6 4-11 7-14 5-9 2h-22l-17-3-8-4-9-8-2-5 3-4 11 3 15 3h23l14-3 15-6 15-9 10-9 10-14 7-11z" fill="#D194A2"/>
<path transform="translate(668,551)" d="m0 0h9l5 5 2 4-1 6-6 7-8 7-11 11-3 4h-2l-2 4-13 13-7 2-8-6-12-13-7-8 1-7 5-5 7-1 7 4 8 8 3 1 2-4 7-7 7-8 9-9 5-6z" fill="#1F2D3C"/>
<path transform="translate(353,274)" d="m0 0h6v3l-4 1-1 5-8 6-10 7-4 5-7 6-4 9-12 12-7 11-6 7-9 14-6 11h-2l-3 9-9 16-3 4-1 4h-2l-3 9-2 5-3 1 1-8 8-22 10-21 8-13 10-16 9-12 11-14 23-23 11-9z" fill="#D4A4A9"/>
<path transform="translate(603,431)" d="m0 0h11l7 2 1 7-3 3-27 2-19 4-15 5-14 7-6-1-3-4 1-5 11-6 20-8 16-4z" fill="#1F2D3C"/>
<path transform="translate(410,431)" d="m0 0h16l16 2 25 7 15 6 8 6-1 7-3 2-7-1-12-6-18-6-14-3-28-2-4-5 2-5z" fill="#1F2D3C"/>
<path transform="translate(591,408)" d="m0 0h25l3 2v8l-2 2-24 1-21 4-18 6-11 5-4 1-5-4-1-3 5-5 6-4 25-9z" fill="#1F2D3C"/>
<path transform="translate(411,408)" d="m0 0h23l18 3 27 9 11 6 2 3-1 5-2 2h-7l-19-8-18-5-11-2-24-1-4-4 1-5z" fill="#1F2D3C"/>
<path transform="translate(592,385)" d="m0 0h20l3 2v7l-3 3-22 1-25 5-21 8h-6l-4-4 1-6 8-5 21-7 17-3z" fill="#1F2D3C"/>
<path transform="translate(418,385)" d="m0 0h18l17 2 26 8 11 6 2 5-4 5-4 1-16-7-14-4-21-3h-17l-5-6 1-4 2-2z" fill="#1F2D3C"/>
<path transform="translate(650,312)" d="m0 0h6l1 5-3 6-6 2-1 2h-3v2l-10 5-10 4-1 1h-7l-2-9v-5l12-5z" fill="#D3A3A9"/>
<path transform="translate(670,396)" d="m0 0 4 4 3 4v2l5 2 4 3h-7l-3-3-8-2-2 9-4 7h-2v2l-2 1h-12l-4-4v-19l2-3 4 8 3 3 5-1 8-6z" fill="#F6F5F6"/>
<path transform="translate(364,310)" d="m0 0h7l19 7 21 7v16l-2-4-19-7-18-8-9-6z" fill="#D4A4A9"/>
<path transform="translate(342,647)" d="m0 0h14l4 1 1 16-1 1-8 1h-10l-6-3-2-3v-6l4-5z" fill="#A8ADBA"/>
<path transform="translate(605,666)" d="m0 0 11 3 3 2-3 1 1 3h9l2-1v2l5 1 7-2v5l-5 9-10-1-11-4-10-9-2-5z" fill="#D3A3A9"/>
<path transform="translate(631,318)" d="m0 0h4v2h2l-2 5-7 9-5 5h-7l-2-9v-5l12-5z" fill="#D295A3"/>
<path transform="translate(697,662)" d="m0 0 10 2-3 5-4 1v2l-6 4-11 7-11 3v-2l6-4v-2h2l1-3 5-4 3-1 4-5z" fill="#D3A4A9"/>
<path transform="translate(310,315)" d="m0 0 1 3-4 6-3 6-4 2-1 4-5 2-2 5-3 7-1 2-3 1-1 6h-2l-1 2h-3l1-4 7-12 12-17 9-11z" fill="#D498A5"/>
<path transform="translate(399,322)" d="m0 0 12 2v16l-2-4-9-3-3-7v-3z" fill="#D095A3"/>
<path transform="translate(739,346)" d="m0 0h2l11 18 8 15-1 4-4-6-6-10v-4l-4-2-2-5-3-3-1-4z" fill="#D7A7AC"/>
<path transform="translate(726,618)" d="m0 0 2 2v11l-1 5-3-3-6 2-3 2 2-4 8-13z" fill="#D4A3A9"/>
<path transform="translate(511,223)" d="m0 0h26l4 2v1l-6 2-1 1h-7l-3-3-13-2z" fill="#D295A3"/>
<path transform="translate(707,305)" d="m0 0 4 2 9 10 13 17v3l-5-5-6-9-4-3v-2h-2l-2-4-5-4-2-2z" fill="#D7A8AD"/>
<path transform="translate(353,274)" d="m0 0h6v3l-4 1v3l-10 5-2-1 7-7z" fill="#D294A2"/>
<path transform="translate(615,671)" d="m0 0h9l7 1-4 4h-10l-2-2z" fill="#D397A4"/>
<path transform="translate(675,277)" d="m0 0 4 1 10 8v3l-5-2-5-4-4-4z" fill="#D499A5"/>
<path transform="translate(616,349)" d="m0 0h1l1 7h2v2l5 2v1l-21-1v-1h12z" fill="#C2A4AE"/>
<path transform="translate(274,368)" d="m0 0v3l-4 10h-3l3-9z" fill="#D499A6"/>
<path transform="translate(298,331)" d="m0 0 2 1-1 4-8 4 2-5z" fill="#D397A4"/>
<path transform="translate(707,305)" d="m0 0 4 2 6 8-5-2-5-5z" fill="#D6A6AC"/>
<path transform="translate(543,501)" d="m0 0h5l-4 4h-9l2-2z" fill="#CAA0A9"/>
</svg>
