<svg width="1589" height="1587" xmlns="http://www.w3.org/2000/svg" xmlns:xlink="http://www.w3.org/1999/xlink" xml:space="preserve" overflow="hidden"><g transform="translate(-1407 -406)"><path d="M2161.3 406.061 2255.56 406.061 2337.74 415.731 2386.08 425.402 2446.51 442.326 2514.19 468.92 2572.2 495.515 2625.37 524.527 2680.96 563.21 2719.64 594.64 2748.64 621.235 2784.9 657.5 2806.65 684.094 2835.65 720.36 2854.99 749.372 2876.74 783.219 2908.17 838.826 2929.92 884.762 2951.67 940.369 2973.43 1010.48 2987.93 1078.18 2995.18 1141.04 2995.18 1276.43 2987.93 1334.45 2971.01 1406.98 2944.42 1486.77 2922.67 1537.54 2903.33 1576.22 2881.58 1614.9 2847.74 1663.26 2825.99 1692.27 2796.98 1726.12 2775.23 1750.29 2746.22 1779.3 2719.64 1801.06 2685.8 1830.08 2620.54 1873.59 2567.36 1905.02 2490.02 1938.87 2429.59 1958.21 2378.83 1972.72 2306.32 1984.81 2260.4 1989.64 2187.89 1992.06 2127.46 1989.64 2069.45 1982.39 2011.44 1970.3 1946.18 1950.96 1900.26 1934.04 1847.08 1909.86 1803.57 1885.68 1757.65 1856.67 1721.4 1830.08 1682.72 1798.65 1644.05 1762.38 1617.46 1735.79 1600.54 1716.44 1578.79 1689.85 1554.62 1658.42 1532.87 1624.57 1508.69 1585.89 1479.69 1530.28 1460.35 1486.77 1431.35 1399.73 1419.26 1348.96 1412.01 1305.44 1407.18 1228.07 1407.18 1189.39 1412.01 1116.86 1424.1 1044.33 1438.6 983.887 1457.94 925.862 1484.52 863.003 1511.11 812.232 1547.37 754.207 1566.7 727.612 1588.46 698.6 1607.79 674.424 1641.63 638.158 1665.8 613.981 1685.14 597.058 1716.56 570.463 1760.07 539.033 1830.16 497.933 1890.59 468.92 1955.85 444.743 2001.77 430.238 2067.03 415.731 2129.88 408.478Z" fill="#E2B3B8" fill-rule="evenodd"/><path d="M2161.3 406.061 2255.56 406.061 2337.74 415.731 2386.08 425.402 2446.51 442.326 2514.19 468.92 2572.2 495.515 2625.37 524.527 2680.96 563.21 2719.64 594.64 2748.64 621.235 2784.9 657.5 2806.65 684.094 2835.65 720.36 2854.99 749.372 2876.74 783.219 2908.17 838.826 2929.92 884.762 2951.67 940.369 2973.43 1010.48 2987.93 1078.18 2995.18 1141.04 2995.18 1276.43 2987.93 1334.45 2971.01 1406.98 2944.42 1486.77 2922.67 1537.54 2903.33 1576.22 2881.58 1614.9 2847.74 1663.26 2825.99 1692.27 2796.98 1726.12 2775.23 1750.29 2746.22 1779.3 2719.64 1801.06 2685.8 1830.08 2620.54 1873.59 2567.36 1905.02 2490.02 1938.87 2429.59 1958.21 2378.83 1972.72 2306.32 1984.81 2260.4 1989.64 2187.89 1992.06 2127.46 1989.64 2069.45 1982.39 2011.44 1970.3 1946.18 1950.96 1900.26 1934.04 1847.08 1909.86 1803.57 1885.68 1757.65 1856.67 1721.4 1830.08 1682.72 1798.65 1644.05 1762.38 1617.46 1735.79 1600.54 1716.44 1578.79 1689.85 1554.62 1658.42 1532.87 1624.57 1508.69 1585.89 1479.69 1530.28 1460.35 1486.77 1431.35 1399.73 1419.26 1348.96 1412.01 1305.44 1407.18 1228.07 1407.18 1189.39 1412.01 1116.86 1424.1 1044.33 1438.6 983.887 1457.94 925.862 1484.52 863.003 1511.11 812.232 1547.37 754.207 1566.7 727.612 1588.46 698.6 1607.79 674.424 1641.63 638.158 1665.8 613.981 1685.14 597.058 1716.56 570.463 1760.07 539.033 1830.16 497.933 1890.59 468.92 1955.85 444.743 2001.77 430.238 2067.03 415.731 2129.88 408.478ZM2141.96 483.427 2083.95 490.679 2018.69 505.186 1955.85 524.527 1883.34 555.957 1835 582.551 1786.66 613.981 1755.23 638.158 1721.4 667.171 1680.31 708.271 1658.55 734.865 1634.38 763.878 1590.87 829.155 1576.37 855.75 1557.04 892.015 1540.12 930.698 1518.36 995.975 1501.44 1061.25 1491.78 1126.53 1489.36 1155.54 1489.36 1259.5 1496.61 1319.95 1511.11 1385.22 1535.28 1457.75 1554.62 1501.27 1590.87 1568.97 1615.05 1607.65 1644.05 1646.33 1665.8 1672.93 1682.72 1689.85 1699.64 1709.19 1728.65 1735.79 1762.48 1762.38 1798.74 1788.98 1859.17 1825.24 1919.59 1856.67 2001.77 1885.68 2076.7 1902.61 2132.29 1909.86 2168.55 1912.28 2238.64 1912.28 2296.65 1907.44 2342.58 1900.19 2417.5 1880.85 2477.93 1859.09 2526.27 1837.33 2569.78 1813.15 2613.29 1784.14 2639.87 1764.8 2664.04 1745.46 2688.21 1723.7 2717.22 1697.1 2734.14 1677.76 2755.89 1653.59 2780.06 1622.16 2811.48 1573.8 2835.65 1532.7 2862.24 1477.09 2876.74 1440.83 2900.91 1356.21 2910.58 1310.27 2917.83 1247.41 2917.83 1165.21 2910.58 1095.1 2896.08 1027.41 2876.74 964.545 2857.41 913.774 2838.07 875.091 2816.32 833.991 2787.31 790.472 2758.31 751.789 2731.72 720.36 2714.8 701.018 2702.72 686.512 2697.88 686.512 2697.88 681.676 2678.55 664.753 2649.54 638.158 2610.87 609.146 2564.94 580.134 2509.35 551.122 2446.51 524.527 2393.33 507.603 2332.91 493.097 2277.32 485.844 2248.31 483.427Z" fill="#1F2D3C" fill-rule="evenodd"/><path d="M2410.77 795.119 2413.19 795.119 2415.61 807.214 2418.03 850.756 2422.87 867.689 2471.25 872.527 2495.45 879.784 2505.12 889.46 2509.96 923.326 2512.38 928.164 2519.64 930.583 2517.22 971.705 2517.22 1017.67 2524.48 1024.92 2553.51 1024.92 2560.77 1022.5 2589.8 1138.62 2592.22 1145.87 2592.22 1170.06 2580.12 1184.58 2565.6 1187 2522.06 1182.16 2461.58 1182.16 2408.35 1184.58 2350.29 1194.25 2301.91 1206.35 2246.26 1223.28 2217.23 1228.12 2185.78 1228.12 2149.49 1220.86 2086.59 1201.51 2040.63 1189.41 1970.47 1179.74 1943.86 1177.32 1822.89 1177.32 1813.22 1167.64 1815.64 1143.45 1837.41 1051.53 1864.02 937.84 1873.7 930.583 1893.05 923.326 1902.73 889.46 1914.82 874.946 1941.44 870.108 1992.24 870.108 1989.82 797.538 2014.01 804.795 2101.11 836.242 2171.27 862.851 2195.46 870.108 2217.23 870.108 2258.36 855.594 2338.19 824.147 2401.1 799.957Z" fill="#1F2D3C" fill-rule="evenodd"/><path d="M2142.02 483.072 2248.41 483.072 2318.53 490.326 2376.56 502.416 2439.43 521.759 2487.78 541.103 2548.23 570.118 2584.5 591.879 2620.77 616.059 2654.62 642.656 2686.05 671.671 2698.14 681.343 2698.14 686.179 2707.82 691.015 2729.58 715.194 2751.34 741.791 2775.52 773.225 2804.53 814.329 2833.55 865.106 2852.89 903.793 2872.24 949.734 2891.58 1010.18 2906.09 1068.21 2915.76 1133.5 2918.18 1164.93 2918.18 1247.14 2908.5 1324.51 2891.58 1392.22 2872.24 1452.66 2845.64 1513.11 2821.46 1559.05 2794.86 1600.16 2765.85 1641.26 2741.67 1667.86 2724.74 1687.2 2698.14 1716.22 2678.8 1733.15 2647.37 1759.74 2603.85 1791.18 2553.07 1822.61 2516.8 1841.95 2458.77 1866.13 2400.74 1885.48 2330.62 1902.4 2277.42 1909.65 2238.74 1912.07 2168.62 1912.07 2108.17 1907.24 2054.97 1897.57 1994.53 1883.06 1919.57 1856.46 1849.45 1820.19 1798.67 1788.76 1752.73 1754.91 1718.88 1725.89 1689.86 1699.29 1663.27 1670.28 1641.51 1643.68 1610.07 1600.16 1585.89 1559.05 1552.04 1496.19 1530.28 1445.41 1508.52 1375.29 1494.01 1305.17 1489.18 1259.23 1489.18 1155.26 1496.43 1092.39 1506.1 1039.2 1525.45 971.495 1544.79 918.301 1568.97 867.524 1593.15 824.001 1624.58 778.06 1646.34 749.045 1675.36 715.194 1697.12 691.015 1728.55 659.581 1755.15 637.82 1796.25 606.387 1856.7 570.118 1892.97 550.774 1963.09 521.759 2018.7 504.833 2083.99 490.326ZM2161.36 536.267 2105.75 543.521 2035.63 558.028 1989.69 572.536 1924.4 599.133 1885.72 618.477 1851.87 637.82 1813.18 664.417 1779.33 691.015 1747.9 720.03 1706.79 761.135 1682.61 792.568 1653.6 833.673 1629.42 874.778 1614.91 898.957 1590.73 952.152 1561.71 1039.2 1549.62 1097.23 1542.37 1160.09 1542.37 1237.47 1547.21 1290.66 1556.88 1341.44 1576.22 1406.72 1593.15 1452.66 1619.74 1508.28 1643.92 1549.38 1677.78 1600.16 1701.95 1631.59 1738.22 1670.28 1762.4 1692.04 1789 1713.8 1830.11 1742.82 1873.63 1769.41 1934.08 1800.85 1980.02 1817.77 2030.79 1834.7 2083.99 1846.79 2132.35 1854.04 2166.2 1856.46 2243.57 1856.46 2325.78 1846.79 2393.48 1829.86 2461.19 1805.68 2521.64 1776.67 2582.08 1740.4 2620.77 1711.38 2652.2 1682.37 2686.05 1650.94 2702.98 1631.59 2736.83 1588.07 2770.68 1534.87 2799.7 1481.68 2819.04 1433.32 2843.22 1358.36 2857.73 1288.25 2862.56 1242.3 2862.56 1150.42 2852.89 1075.47 2838.38 1017.44 2811.79 942.48 2792.44 901.375 2768.26 857.852 2734.41 807.076 2707.82 773.225 2678.8 739.373 2642.53 703.104 2623.19 686.179 2594.17 664.417 2550.65 635.402 2507.13 611.223 2456.35 587.043 2415.25 570.118 2337.87 550.774 2284.68 541.103 2224.23 536.267Z" fill="#F9F9F9" fill-rule="evenodd"/><path d="M2193 580.086 2214.74 580.086 2449.03 664.704 2572.21 705.804 2586.71 715.475 2593.95 727.563 2596.37 749.322 2596.37 814.598 2610.86 819.434 2622.94 833.94 2625.35 855.698 2615.69 872.622 2608.45 882.292 2615.69 904.052 2627.77 971.745 2630.18 991.087 2615.69 991.087 2598.78 981.416 2584.29 959.657 2572.21 971.745 2552.89 988.669 2538.4 991.087 2535.98 978.999 2552.89 889.546 2555.31 879.875 2540.81 860.534 2538.4 841.193 2548.06 821.852 2562.55 809.763 2560.14 737.234 2548.06 729.981 2531.15 727.563 2475.6 744.487 2436.95 758.993 2371.74 780.751 2294.45 809.763 2209.91 841.193 2190.58 838.775 2135.03 819.434 2069.81 795.257 2002.18 771.081 1850.01 720.31 1845.18 713.057 1864.51 700.969 1958.71 667.122 2050.49 633.275 2122.95 606.681Z" fill="#1F2D3C" fill-rule="evenodd"/><path d="M2502.16 1221.18 2528.71 1221.18 2569.74 1230.83 2608.35 1250.14 2634.9 1269.44 2651.79 1286.33 2673.51 1320.11 2685.58 1346.65 2695.23 1387.67 2695.23 1438.34 2685.58 1474.54 2673.51 1503.49 2654.2 1530.03 2632.48 1554.16 2598.7 1575.88 2564.91 1587.94 2531.12 1595.18 2504.58 1595.18 2463.55 1587.94 2432.18 1575.88 2405.63 1558.99 2381.5 1537.27 2359.78 1508.32 2345.3 1479.36 2335.64 1447.99 2333.23 1433.52 2333.23 1387.67 2340.47 1351.48 2354.95 1317.7 2374.26 1288.74 2393.56 1267.03 2424.94 1245.31 2451.48 1233.25 2485.27 1223.59Z" fill="#F8F8F9" fill-rule="evenodd"/><path d="M1784.15 1262.19 1861.5 1262.19 2197.5 1264.6 2335.29 1267.01 2340.12 1271.84 2315.95 1308.04 2301.45 1349.06 2296.61 1370.78 2277.27 1373.19 1745.47 1373.19 1723.71 1365.95 1709.21 1353.88 1697.12 1329.75 1697.12 1305.62 1706.79 1286.32 1726.13 1269.43 1738.22 1264.6Z" fill="#1F2D3C" fill-rule="evenodd"/><path d="M2323.67 1537.23 2335.75 1537.23 2357.51 1563.83 2384.11 1588.02 2413.12 1604.95 2425.2 1609.79 2415.53 1624.3 2398.61 1636.39 2384.11 1641.23 1774.88 1641.23 1757.96 1633.97 1743.46 1621.88 1736.2 1604.95 1736.2 1573.51 1743.46 1559 1760.38 1544.49 1770.05 1539.65Z" fill="#1F2D3C" fill-rule="evenodd"/><path d="M1740.67 1402.21 2026.18 1402.21 2294.76 1404.63 2299.6 1453.08 2314.12 1496.68 2314.12 1506.37 2306.86 1508.79 2072.16 1511.21 1743.09 1511.21 1723.73 1503.94 1704.38 1486.99 1697.12 1472.45 1697.12 1443.39 1709.21 1419.17 1730.99 1404.63Z" fill="#1F2D3C" fill-rule="evenodd"/><path d="M1934.56 902.134 2026.12 902.134 2079.13 909.36 2129.73 928.63 2182.74 957.534 2185.14 959.943 2185.14 1164.68 2182.74 1179.13 2146.59 1159.86 2091.18 1133.37 2023.71 1114.1 1970.7 1106.87 1924.92 1106.87 1879.14 1111.69 1891.19 1051.47 1905.65 998.482 1915.29 957.534 1929.74 906.952Z" fill="#F6F5F6" fill-rule="evenodd"/><path d="M2371.71 902.135 2456.2 902.135 2473.1 906.967 2492.41 981.86 2521.38 1095.41 2526.21 1114.74 2468.27 1107.49 2436.89 1107.49 2393.44 1112.32 2330.67 1126.82 2279.98 1146.14 2241.35 1165.47 2224.45 1175.13 2219.62 1175.13 2217.21 1160.64 2217.21 967.365 2224.45 955.285 2251.01 938.373 2294.46 919.046 2335.5 906.967Z" fill="#F6F5F6" fill-rule="evenodd"/><path d="M2487.73 1182.18 2550.67 1182.18 2550.67 1187.01 2567.62 1189.43 2577.3 1196.69 2608.77 1208.78 2637.82 1225.71 2662.03 1247.48 2674.13 1259.57 2693.5 1283.75 2720.12 1334.54 2729.81 1373.24 2732.23 1387.75 2732.23 1433.7 2724.97 1469.98 2712.86 1501.42 2698.34 1530.44 2671.71 1564.3 2642.66 1588.48 2613.61 1605.41 2577.3 1619.92 2543.41 1627.18 2487.73 1627.18 2451.42 1619.92 2407.85 1605.41 2381.22 1588.48 2352.17 1561.88 2330.38 1535.27 2318.28 1520.76 2298.91 1462.72 2294.07 1438.54 2294.07 1402.26 2289.23 1402.26 2294.07 1375.65 2301.33 1339.38 2315.86 1303.1 2335.22 1276.5 2337.64 1271.66 2342.49 1271.66 2347.33 1261.99 2373.95 1235.38 2412.69 1211.2 2451.42 1191.85 2470.79 1184.6ZM2502.26 1220.87 2465.94 1228.13 2434.47 1240.22 2405.43 1257.15 2386.06 1274.08 2366.69 1298.26 2349.75 1327.29 2337.64 1361.14 2332.8 1387.75 2332.8 1433.7 2342.49 1472.39 2354.59 1501.42 2378.8 1535.27 2398.16 1554.62 2432.05 1576.39 2463.52 1588.48 2504.68 1595.74 2531.3 1595.74 2582.14 1583.64 2616.03 1566.71 2640.24 1547.37 2659.61 1525.6 2676.55 1499 2691.08 1460.3 2695.92 1438.54 2695.92 1387.75 2686.23 1346.63 2666.87 1307.94 2647.5 1281.33 2620.87 1257.15 2586.98 1237.8 2562.77 1228.13 2528.88 1220.87Z" fill="#F8F7F8" fill-rule="evenodd"/><path d="M2502.16 1221.18 2528.71 1221.18 2569.74 1230.83 2608.35 1250.14 2634.9 1269.44 2651.79 1286.33 2673.51 1320.11 2685.58 1346.65 2695.23 1387.67 2695.23 1438.34 2685.58 1474.54 2673.51 1503.49 2654.2 1530.03 2632.48 1554.16 2598.7 1575.88 2564.91 1587.94 2531.12 1595.18 2504.58 1595.18 2463.55 1587.94 2432.18 1575.88 2405.63 1558.99 2381.5 1537.27 2359.78 1508.32 2345.3 1479.36 2335.64 1447.99 2333.23 1433.52 2333.23 1387.67 2340.47 1351.48 2354.95 1317.7 2374.26 1288.74 2393.56 1267.03 2424.94 1245.31 2451.48 1233.25 2485.27 1223.59ZM2497.34 1267.03 2468.38 1274.27 2437 1291.16 2417.7 1308.05 2395.98 1337 2383.91 1365.96 2379.08 1390.09 2379.08 1428.69 2386.32 1460.06 2403.22 1493.84 2427.35 1520.38 2453.9 1537.27 2478.03 1546.92 2504.58 1551.75 2531.12 1551.75 2560.08 1546.92 2593.87 1530.03 2622.83 1503.49 2639.72 1476.95 2649.38 1450.41 2654.2 1421.45 2651.79 1387.67 2642.14 1353.89 2630.07 1329.76 2608.35 1305.63 2589.04 1288.74 2555.26 1271.85 2533.54 1267.03Z" fill="#1F2D3C" fill-rule="evenodd"/><path d="M1839.55 718.108 1868.59 725.373 1975.07 759.28 2042.83 783.498 2096.07 802.873 2168.67 829.514 2200.13 839.201 2217.07 836.779 2359.85 783.498 2427.61 759.28 2471.17 744.748 2505.05 732.639 2531.67 725.373 2555.87 730.217 2563.13 737.482 2563.13 752.014 2534.09 756.857 2476.01 776.232 2449.39 785.92 2449.39 865.842 2417.93 865.842 2415.51 851.311 2413.09 807.717 2410.67 798.029 2364.69 817.404 2275.15 851.311 2234.01 868.264 2217.07 873.108 2195.29 873.108 2144.47 856.154 2074.29 829.514 1999.27 802.873 1989.59 798.029 1992.01 812.561 1992.01 870.686 1987.17 873.108 1955.71 870.686 1955.71 783.498 1933.93 778.655 1863.75 754.436 1839.55 742.326 1837.13 730.217Z" fill="#F6F6F6" fill-rule="evenodd"/><path d="M2161.72 537.08 2224.59 537.08 2285.04 541.913 2359.99 556.41 2422.85 573.324 2488.14 602.319 2543.75 631.313 2580.02 655.476 2613.87 679.639 2638.05 701.385 2657.39 718.298 2686.4 747.293 2708.17 773.872 2737.18 810.116 2734.76 814.948 2722.67 802.867 2708.17 781.121 2698.49 773.872 2698.49 769.04 2693.66 769.04 2688.82 759.374 2676.73 749.709 2657.39 735.212 2654.97 725.547 2642.88 720.715 2623.54 711.05 2611.45 708.633 2580.02 677.222 2567.93 669.974 2546.17 662.725 2512.32 645.811 2490.56 631.313 2447.03 611.984 2415.6 597.486 2401.09 592.654 2379.33 587.821 2335.81 575.74 2294.71 570.908 2282.62 566.075 2212.5 558.826 2159.31 561.243 2127.87 566.075 2094.02 573.324 2065.01 580.573 2040.83 582.989 1997.31 597.486 1977.96 604.735 1948.95 619.232 1929.61 624.065 1919.94 624.065 1919.94 628.897 1910.26 631.313 1910.26 636.146 1898.18 640.978 1890.92 643.395 1890.92 648.227 1864.32 662.725 1825.64 679.639 1799.04 698.969 1774.86 715.882 1765.19 727.963 1748.27 742.461 1738.59 764.207 1709.58 793.202 1692.66 819.781 1678.15 836.694 1656.39 870.522 1641.88 897.101 1637.04 897.101 1629.79 918.847 1608.03 957.507 1600.78 967.172 1598.36 976.836 1593.52 976.836 1586.27 998.583 1581.43 1010.66 1574.18 1013.08 1576.6 993.75 1595.94 940.593 1620.12 889.852 1639.46 858.44 1663.64 819.781 1685.4 790.786 1712 756.958 1767.61 701.385 1794.21 679.639 1837.73 648.227 1881.25 621.648 1919.94 602.319 1970.71 580.573 2011.82 566.075 2055.34 553.994 2118.2 541.913Z" fill="#D4A5AA" fill-rule="evenodd"/><path d="M1758.25 1291.19 1828.22 1291.19 2093.64 1293.59 2105.71 1303.19 2108.12 1307.99 2108.12 1327.19 2098.47 1336.79 2074.34 1339.19 1760.66 1339.19 1741.36 1331.99 1734.12 1322.39 1734.12 1307.99 1746.18 1295.99Z" fill="#F7F7F7" fill-rule="evenodd"/><path d="M1753.42 1431.21 2098.47 1431.21 2108.12 1445.54 2108.12 1459.88 2098.47 1471.82 2091.23 1474.21 1751.01 1474.21 1736.53 1464.66 1734.12 1462.27 1734.12 1447.93 1746.18 1433.6Z" fill="#CF95A3" fill-rule="evenodd"/><path d="M2555.57 749.112 2562.82 751.528 2565.24 809.508 2550.74 821.587 2541.07 840.914 2543.49 860.241 2557.99 879.567 2548.32 925.468 2538.65 978.617 2538.65 990.697 2545.9 993.112 2533.82 990.697 2521.74 976.201 2516.9 964.122 2519.32 930.3 2509.65 927.885 2504.82 903.726 2499.99 884.399 2483.07 877.152 2454.07 872.32 2422.65 869.904 2420.24 865.073 2449.24 865.073 2446.82 785.35 2475.82 773.27 2533.82 753.944Z" fill="#E1B3B9" fill-rule="evenodd"/><path d="M2717.44 1494.22 2722.26 1499.06 2722.26 1525.64 2715.02 1547.39 2700.55 1573.97 2674.01 1605.39 2664.36 1617.47 2654.71 1619.89 2654.71 1624.72 2640.23 1634.39 2613.69 1651.31 2579.91 1663.39 2558.2 1668.22 2505.12 1668.22 2464.1 1660.97 2444.8 1651.31 2423.09 1631.97 2418.26 1619.89 2425.5 1610.22 2452.04 1617.47 2488.23 1624.72 2543.72 1624.72 2577.5 1617.47 2613.69 1602.97 2649.88 1581.22 2674.01 1559.47 2698.14 1525.64 2715.02 1499.06Z" fill="#D194A2" fill-rule="evenodd"/><path d="M2577.44 1332.2 2599.27 1332.2 2611.39 1344.26 2616.24 1353.91 2613.82 1368.39 2599.27 1385.28 2579.87 1402.17 2553.19 1428.71 2545.92 1438.36 2541.07 1438.36 2536.22 1448.01 2504.69 1479.37 2487.72 1484.2 2468.32 1469.72 2439.22 1438.36 2422.24 1419.06 2424.67 1402.17 2436.79 1390.1 2453.77 1387.69 2470.74 1397.34 2490.14 1416.64 2497.42 1419.06 2502.27 1409.41 2519.24 1392.52 2536.22 1373.21 2558.04 1351.5 2570.17 1337.02Z" fill="#1F2D3C" fill-rule="evenodd"/><path d="M1815.64 662.099 1830.13 662.099 1830.13 669.361 1820.47 671.782 1818.05 683.885 1798.73 698.409 1774.58 715.354 1764.92 727.458 1748.01 741.982 1738.35 763.768 1709.37 792.816 1692.47 819.444 1677.98 836.389 1656.24 870.279 1641.75 896.906 1636.92 896.906 1629.67 918.692 1607.94 957.423 1600.69 967.106 1598.28 976.789 1593.45 976.789 1586.2 998.575 1581.37 1010.68 1574.13 1013.1 1576.54 993.734 1595.86 940.479 1620.01 889.644 1639.33 858.175 1663.49 819.444 1685.22 790.396 1711.79 756.506 1767.33 700.83 1793.9 679.044Z" fill="#D4A4A9" fill-rule="evenodd"/><path d="M2420.36 1042.15 2446.91 1042.15 2463.8 1046.95 2466.22 1063.75 2458.98 1070.95 2393.8 1075.75 2347.94 1085.35 2311.73 1097.35 2277.94 1114.15 2263.46 1111.76 2256.22 1102.15 2258.63 1090.15 2285.18 1075.75 2333.46 1056.55 2372.08 1046.95Z" fill="#1F2D3C" fill-rule="evenodd"/><path d="M1954.04 1042.15 1992.67 1042.15 2031.29 1046.95 2091.63 1063.75 2127.84 1078.15 2147.15 1092.55 2144.73 1109.35 2137.49 1114.15 2120.6 1111.76 2091.63 1097.35 2048.18 1082.95 2014.39 1075.75 1946.8 1070.95 1937.15 1058.95 1941.98 1046.95Z" fill="#1F2D3C" fill-rule="evenodd"/><path d="M2391.49 986.147 2451.96 986.147 2459.21 990.975 2459.21 1010.29 2454.38 1015.11 2396.33 1017.53 2345.54 1027.18 2302 1041.66 2275.4 1053.73 2265.73 1056.15 2253.63 1046.49 2251.21 1039.25 2263.31 1027.18 2277.82 1017.53 2338.28 995.802Z" fill="#1F2D3C" fill-rule="evenodd"/><path d="M1956.24 986.148 2011.87 986.148 2055.4 993.434 2120.71 1015.29 2147.31 1029.86 2152.15 1037.15 2149.73 1049.29 2144.89 1054.15 2127.96 1054.15 2082.01 1034.72 2038.47 1022.58 2011.87 1017.72 1953.82 1015.29 1944.15 1005.58 1946.57 993.434Z" fill="#1F2D3C" fill-rule="evenodd"/><path d="M2393.56 931.137 2441.95 931.137 2449.21 935.906 2449.21 952.599 2441.95 959.753 2388.72 962.137 2328.23 974.06 2277.41 993.138 2262.89 993.138 2253.21 983.599 2255.63 969.291 2274.99 957.368 2325.81 940.675 2366.94 933.521Z" fill="#1F2D3C" fill-rule="evenodd"/><path d="M1973.09 931.138 2016.64 931.138 2057.78 935.953 2120.69 955.212 2147.31 969.657 2152.15 981.694 2142.47 993.731 2132.79 996.138 2094.08 979.286 2060.2 969.657 2009.39 962.434 1968.25 962.434 1956.15 947.99 1958.57 938.361 1963.41 933.546Z" fill="#1F2D3C" fill-rule="evenodd"/><path d="M2533.47 754.112 2547.84 754.112 2550.23 766.149 2543.05 780.594 2528.67 785.408 2526.28 790.223 2519.09 790.223 2519.09 795.038 2495.14 807.075 2471.19 816.705 2468.79 819.112 2452.02 819.112 2447.23 797.446 2447.23 785.408 2475.98 773.371Z" fill="#D3A3A9" fill-rule="evenodd"/><path d="M2582.33 957.143 2592.06 966.798 2599.36 976.453 2599.36 981.281 2611.52 986.108 2621.24 993.35 2604.22 993.35 2596.93 986.108 2577.47 981.281 2572.61 1003.01 2562.88 1019.9 2558.02 1019.9 2558.02 1024.73 2553.15 1027.14 2523.97 1027.14 2514.24 1017.49 2514.24 971.626 2519.11 964.384 2528.83 983.695 2536.13 990.936 2548.29 988.522 2567.74 974.039Z" fill="#F6F5F6" fill-rule="evenodd"/><path d="M1842.55 749.113 1859.46 749.113 1905.38 766.146 1956.13 783.18 1956.13 822.113 1951.3 812.38 1905.38 795.346 1861.88 775.879 1840.13 761.279Z" fill="#D4A4A9" fill-rule="evenodd"/><path d="M1789.38 1564.23 1823.09 1564.23 1832.72 1566.66 1835.12 1605.39 1832.72 1607.81 1813.46 1610.23 1789.38 1610.23 1774.94 1602.97 1770.12 1595.71 1770.12 1581.18 1779.75 1569.08Z" fill="#A8ADBA" fill-rule="evenodd"/><path d="M2425.4 1610.24 2451.74 1617.41 2458.93 1622.19 2451.74 1624.59 2454.14 1631.76 2475.69 1631.76 2480.48 1629.37 2480.48 1634.15 2492.45 1636.54 2509.22 1631.76 2509.22 1643.72 2497.24 1665.24 2473.3 1662.85 2446.95 1653.28 2423.01 1631.76 2418.22 1619.8Z" fill="#D3A3A9" fill-rule="evenodd"/><path d="M2487.88 769.113 2497.44 769.113 2497.44 773.875 2502.23 773.875 2497.44 785.78 2480.7 807.208 2468.75 819.114 2452.01 819.114 2447.23 797.685 2447.23 785.78 2475.92 773.875Z" fill="#D295A3" fill-rule="evenodd"/><path d="M2647.25 1600.24 2671.25 1605.07 2664.05 1617.16 2654.45 1619.57 2654.45 1624.41 2640.05 1634.07 2613.65 1650.99 2587.25 1658.24 2587.25 1653.41 2601.65 1643.74 2601.65 1638.91 2606.45 1638.91 2608.85 1631.66 2620.85 1621.99 2628.05 1619.57 2637.65 1607.49Z" fill="#D3A4A9" fill-rule="evenodd"/><path d="M1711.69 761.115 1714.11 768.419 1704.42 783.028 1697.14 797.636 1687.45 802.506 1685.02 812.245 1672.9 817.115 1668.05 829.288 1660.78 846.332 1658.35 851.202 1651.08 853.636 1648.66 868.245 1643.81 868.245 1641.38 873.115 1634.11 873.115 1636.54 863.375 1653.51 834.158 1682.6 792.767 1704.42 765.984Z" fill="#D498A5" fill-rule="evenodd"/><path d="M1927 778.117 1956.15 783.006 1956.15 822.118 1951.29 812.34 1929.43 805.006 1922.14 787.895 1922.14 780.562Z" fill="#D095A3" fill-rule="evenodd"/><path d="M2749.26 836.126 2754.02 836.126 2780.22 879.91 2799.26 916.396 2796.88 926.126 2787.36 911.531 2773.07 887.207 2773.07 877.477 2763.55 872.612 2758.79 860.45 2751.64 853.153 2749.26 843.423Z" fill="#D7A7AC" fill-rule="evenodd"/><path d="M2717.49 1494.22 2722.26 1499.07 2722.26 1525.7 2719.87 1537.8 2712.72 1530.54 2698.41 1535.38 2691.26 1540.22 2696.03 1530.54 2715.1 1499.07Z" fill="#D4A3A9" fill-rule="evenodd"/><path d="M2198.18 539.078 2260.58 539.078 2270.18 543.745 2270.18 546.078 2255.78 550.745 2253.38 553.078 2236.58 553.078 2229.38 546.078 2198.18 541.411Z" fill="#D295A3" fill-rule="evenodd"/><path d="M2671.26 737.111 2680.95 741.986 2702.76 766.361 2734.26 807.799 2734.26 815.111 2722.14 802.924 2707.6 780.986 2697.91 773.674 2697.91 768.798 2693.06 768.798 2688.22 759.048 2676.1 749.298 2671.26 744.424Z" fill="#D7A8AD" fill-rule="evenodd"/><path d="M1815.88 662.099 1830.13 662.099 1830.13 669.349 1820.63 671.766 1820.63 679.016 1796.88 691.099 1792.13 688.682 1808.75 671.766Z" fill="#D294A2" fill-rule="evenodd"/><path d="M2449.22 1622.24 2471.16 1622.24 2488.22 1624.64 2478.47 1634.24 2454.1 1634.24 2449.22 1629.44Z" fill="#D397A4" fill-rule="evenodd"/><path d="M2594.24 670.1 2603.96 672.516 2628.25 691.85 2628.25 699.1 2616.1 694.267 2603.96 684.6 2594.24 674.933Z" fill="#D499A5" fill-rule="evenodd"/><path d="M2451.37 844.126 2453.79 844.126 2456.22 861.043 2461.08 861.043 2461.08 865.876 2473.22 870.709 2473.22 873.126 2422.22 870.709 2422.22 868.293 2451.37 868.293Z" fill="#C2A4AE" fill-rule="evenodd"/><path d="M1625.1 889.135 1625.1 896.52 1615.39 921.135 1608.1 921.135 1615.39 898.981Z" fill="#D499A6" fill-rule="evenodd"/><path d="M1683.22 800.121 1688.11 802.565 1685.66 812.343 1666.11 822.121 1671 809.898Z" fill="#D397A4" fill-rule="evenodd"/><path d="M2671.25 737.109 2680.85 741.91 2695.25 761.11 2683.25 756.31 2671.25 744.309Z" fill="#D6A6AC" fill-rule="evenodd"/><path d="M2275.27 1211.19 2287.19 1211.19 2277.65 1221.19 2256.19 1221.19 2260.96 1216.19Z" fill="#CAA0A9" fill-rule="evenodd"/></g></svg>